<svg xmlns="http://www.w3.org/2000/svg" viewBox="0 0 287.07 337.19"><defs><style>.cls-1{fill:#fff;}.cls-2{fill:#a4c639;}</style></defs><title>Asset 2</title><g id="Layer_2" data-name="Layer 2"><g id="Layer_1-2" data-name="Layer 1"><path class="cls-1" d="M194.86,61.69q0,8.36-8.68,8.35-7.06,0-7.06-8.35a7.66,7.66,0,0,1,2.08-5.23,6.49,6.49,0,0,1,5-2.32,8.71,8.71,0,0,1,6.19,2.32A7,7,0,0,1,194.86,61.69Z"/><path class="cls-1" d="M106.26,56.46a7.26,7.26,0,0,1,2.33,5.23,8.15,8.15,0,0,1-2.33,6,7.76,7.76,0,0,1-5.7,2.33A7.57,7.57,0,0,1,95,67.71a8.12,8.12,0,0,1-2.33-6A7.22,7.22,0,0,1,95,56.46a7.56,7.56,0,0,1,5.54-2.32A7.75,7.75,0,0,1,106.26,56.46Z"/><path class="cls-2" d="M287.07,128.35V215.9q0,9.33-5.86,15.18A19.73,19.73,0,0,1,266.67,237a20.56,20.56,0,0,1-15.1-5.87q-6-5.85-5.95-15.18V128.35a20.58,20.58,0,0,1,5.95-14.94,20.16,20.16,0,0,1,15.1-6.1,19.37,19.37,0,0,1,14.54,6.1A20.79,20.79,0,0,1,287.07,128.35Z"/><path class="cls-2" d="M238.07,104.1H49.15A78.37,78.37,0,0,1,62.57,59.28,92.53,92.53,0,0,1,98.15,28.11Q83,3,83.05,2.57C83.05.86,84.18,0,86.42,0q1.29,0,17,26a95.19,95.19,0,0,1,40-8.51,105.72,105.72,0,0,1,41,8.51q15.09-26,16.7-26c2,0,3.06,1,3.06,2.89l-.49,1.28L190.2,28.91A86.49,86.49,0,0,1,224.9,59.6,79.43,79.43,0,0,1,238.07,104.1ZM186.18,70q8.69,0,8.68-8.35a7,7,0,0,0-2.49-5.23,8.71,8.71,0,0,0-6.19-2.32,6.49,6.49,0,0,0-5,2.32,7.66,7.66,0,0,0-2.08,5.23Q179.12,70,186.18,70Zm-77.59-8.35a7.26,7.26,0,0,0-2.33-5.23,7.75,7.75,0,0,0-5.7-2.32A7.56,7.56,0,0,0,95,56.46a7.22,7.22,0,0,0-2.33,5.23,8.12,8.12,0,0,0,2.33,6A7.57,7.57,0,0,0,100.56,70a7.76,7.76,0,0,0,5.7-2.33A8.15,8.15,0,0,0,108.59,61.69Z"/><path class="cls-2" d="M237.27,111.65V247.71a21.52,21.52,0,0,1-6.35,15.42,21.21,21.21,0,0,1-16,6.59H200.32v45.62A21.13,21.13,0,0,1,194.06,331a20.55,20.55,0,0,1-14.94,6.18A20.26,20.26,0,0,1,163.85,331q-5.94-6.19-5.94-15.67V269.72H129.48v45.62A21.1,21.1,0,0,1,123.21,331a20.48,20.48,0,0,1-29.32,0,21.26,21.26,0,0,1-6.18-15.67V269.72H72.45a22.37,22.37,0,0,1-22.17-22V111.65Z"/><path class="cls-2" d="M41.6,128.35V215.9q0,9.33-5.78,15.18A19.43,19.43,0,0,1,21.36,237a21.27,21.27,0,0,1-15.1-5.87Q0,225.23,0,215.9V128.35a20.08,20.08,0,0,1,6.26-14.94,20.86,20.86,0,0,1,15.1-6.1,19.07,19.07,0,0,1,14.46,6.1A20.89,20.89,0,0,1,41.6,128.35Z"/></g></g></svg>