<svg xmlns="http://www.w3.org/2000/svg" viewBox="0 0 61.25 61.25"><defs><style>.cls-1{fill:#ef3620;}</style></defs><title>1Asset 1</title><g id="Layer_2" data-name="Layer 2"><g id="svg2"><g id="g10"><g id="g12"><path id="path14" class="cls-1" d="M46.38,22.55a2.08,2.08,0,0,0-2.07,2.08v6.84a13.69,13.69,0,0,1-27.37,0V24.63a2.07,2.07,0,1,0-4.14,0v6.84a17.83,17.83,0,1,0,35.65,0V24.63a2.08,2.08,0,0,0-2.07-2.08"/><path id="path16" class="cls-1" d="M30.62,0A30.63,30.63,0,1,0,61.25,30.63,30.66,30.66,0,0,0,30.62,0m0,57A26.41,26.41,0,1,1,57,30.63,26.43,26.43,0,0,1,30.62,57"/></g></g></g></g></svg>